<?xml version="1.0" encoding="utf-8"?>
<!-- Generator: Adobe Illustrator 16.0.4, SVG Export Plug-In . SVG Version: 6.00 Build 0)  -->
<!DOCTYPE svg PUBLIC "-//W3C//DTD SVG 1.1//EN" "http://www.w3.org/Graphics/SVG/1.1/DTD/svg11.dtd">
<svg version="1.1" id="Capa_1" xmlns="http://www.w3.org/2000/svg" xmlns:xlink="http://www.w3.org/1999/xlink" x="0px" y="0px"
	 width="19.975px" height="23.42px" viewBox="0 0 19.975 23.42" enable-background="new 0 0 19.975 23.42" xml:space="preserve">
<g>
	<path d="M1.456,7.636H1.396C0.627,7.636,0,8.265,0,9.032v6.078c0,0.77,0.627,1.397,1.396,1.397h0.061
		c0.769,0,1.396-0.629,1.396-1.397V9.032C2.852,8.265,2.224,7.636,1.456,7.636z"/>
	<path d="M3.521,17.456c0,0.706,0.577,1.281,1.283,1.281h1.371v3.283c0,0.771,0.629,1.398,1.396,1.398h0.06
		c0.77,0,1.398-0.628,1.398-1.398v-3.283h1.916v3.283c0,0.771,0.631,1.398,1.398,1.398h0.059c0.77,0,1.397-0.628,1.397-1.398v-3.283
		h1.372c0.705,0,1.282-0.575,1.282-1.281V7.859H3.521V17.456z"/>
	<path d="M13.208,2.039l1.089-1.681c0.07-0.106,0.039-0.251-0.068-0.32c-0.106-0.07-0.251-0.041-0.32,0.068L12.78,1.845
		c-0.847-0.347-1.793-0.542-2.792-0.542c-1,0-1.944,0.195-2.793,0.542L6.068,0.106C5.999-0.003,5.853-0.032,5.746,0.038
		c-0.107,0.069-0.138,0.214-0.068,0.32l1.09,1.681c-1.965,0.963-3.29,2.778-3.29,4.86c0,0.128,0.008,0.254,0.019,0.379H16.48
		c0.011-0.125,0.018-0.251,0.018-0.379C16.498,4.817,15.172,3.002,13.208,2.039z M6.978,5.049c-0.345,0-0.625-0.278-0.625-0.624
		c0-0.346,0.28-0.623,0.625-0.623c0.347,0,0.625,0.277,0.625,0.623C7.603,4.771,7.323,5.049,6.978,5.049z M12.997,5.049
		c-0.345,0-0.625-0.278-0.625-0.624c0-0.346,0.28-0.623,0.625-0.623c0.346,0,0.624,0.277,0.624,0.623
		C13.621,4.771,13.343,5.049,12.997,5.049z"/>
	<path d="M18.578,7.636H18.52c-0.769,0-1.398,0.629-1.398,1.396v6.078c0,0.77,0.63,1.397,1.398,1.397h0.059
		c0.77,0,1.396-0.629,1.396-1.397V9.032C19.975,8.265,19.347,7.636,18.578,7.636z"/>
</g>
</svg>
