<svg width="1286" height="711" xmlns="http://www.w3.org/2000/svg"><g><path d="M-30.431141778826714,-2.9992677411064506L-125.77336658723652,134.65345622971654L18.512188768945634,38.760900693014264Z" fill="#f6fef2" stroke="#f6fef2"></path><path d="M-30.431141778826714,-2.9992677411064506L18.512188768945634,38.760900693014264L65.89758582413197,-118.68746417574584Z" fill="#f6fcf2" stroke="#f6fcf2"></path><path d="M65.89758582413197,-118.68746417574584L18.512188768945634,38.760900693014264L142.35974091570824,125.82364929839969Z" fill="#eef9ec" stroke="#eef9ec"></path><path d="M65.89758582413197,-118.68746417574584L142.35974091570824,125.82364929839969L234.9201432056725,-136.82550786994398Z" fill="#e8f6e7" stroke="#e8f6e7"></path><path d="M234.9201432056725,-136.82550786994398L142.35974091570824,125.82364929839969L343.1098338775337,37.07702044863254Z" fill="#def2de" stroke="#def2de"></path><path d="M234.9201432056725,-136.82550786994398L343.1098338775337,37.07702044863254L352.9817080870271,-74.81628101319075Z" fill="#d6efdf" stroke="#d6efdf"></path><path d="M234.9201432056725,-136.82550786994398L352.9817080870271,-74.81628101319075L545.6575531093404,-125.09369241073728Z" fill="#ceece0" stroke="#ceece0"></path><path d="M234.9201432056725,-136.82550786994398L545.6575531093404,-125.09369241073728L644.5992865879089,-138.3337573800236Z" fill="#c2e8e1" stroke="#c2e8e1"></path><path d="M352.9817080870271,-74.81628101319075L343.1098338775337,37.07702044863254L474.9470379203558,98.30284798517823Z" fill="#caecde" stroke="#caecde"></path><path d="M352.9817080870271,-74.81628101319075L474.9470379203558,98.30284798517823L545.6575531093404,-125.09369241073728Z" fill="#c4e8e1" stroke="#c4e8e1"></path><path d="M545.6575531093404,-125.09369241073728L474.9470379203558,98.30284798517823L625.4959983564913,91.8784328456968Z" fill="#b7e3e0" stroke="#b7e3e0"></path><path d="M545.6575531093404,-125.09369241073728L625.4959983564913,91.8784328456968L709.1712683578953,24.330249186605215Z" fill="#b1dde3" stroke="#b1dde3"></path><path d="M545.6575531093404,-125.09369241073728L709.1712683578953,24.330249186605215L644.5992865879089,-138.3337573800236Z" fill="#b0dce3" stroke="#b0dce3"></path><path d="M644.5992865879089,-138.3337573800236L709.1712683578953,24.330249186605215L752.1183799114078,-74.36155461706221Z" fill="#a9d6e4" stroke="#a9d6e4"></path><path d="M644.5992865879089,-138.3337573800236L752.1183799114078,-74.36155461706221L1024.546481971629,-101.96695575490594Z" fill="#9dcde3" stroke="#9dcde3"></path><path d="M752.1183799114078,-74.36155461706221L709.1712683578953,24.330249186605215L874.3680913187563,-21.158635765314102Z" fill="#a0d0e4" stroke="#a0d0e4"></path><path d="M752.1183799114078,-74.36155461706221L874.3680913187563,-21.158635765314102L1024.546481971629,-101.96695575490594Z" fill="#94c4de" stroke="#94c4de"></path><path d="M874.3680913187563,-21.158635765314102L709.1712683578953,24.330249186605215L801.0574947157875,156.67041630018502Z" fill="#99cedd" stroke="#99cedd"></path><path d="M874.3680913187563,-21.158635765314102L801.0574947157875,156.67041630018502L916.0386360902339,70.65284553915262Z" fill="#8fc6d8" stroke="#8fc6d8"></path><path d="M874.3680913187563,-21.158635765314102L916.0386360902339,70.65284553915262L1024.546481971629,-101.96695575490594Z" fill="#8ebedb" stroke="#8ebedb"></path><path d="M1024.546481971629,-101.96695575490594L916.0386360902339,70.65284553915262L1076.9797348743305,127.00014693662524Z" fill="#83b6d4" stroke="#83b6d4"></path><path d="M1024.546481971629,-101.96695575490594L1076.9797348743305,127.00014693662524L1157.9646826535463,32.4267196143046Z" fill="#7eadd0" stroke="#7eadd0"></path><path d="M1024.546481971629,-101.96695575490594L1157.9646826535463,32.4267196143046L1258.5685486206785,-2.1085727447643876Z" fill="#80a6cf" stroke="#80a6cf"></path><path d="M1024.546481971629,-101.96695575490594L1258.5685486206785,-2.1085727447643876L1371.719005187042,-10.411956012248993Z" fill="#809ecb" stroke="#809ecb"></path><path d="M1024.546481971629,-101.96695575490594L1371.719005187042,-10.411956012248993L1432.9058235045522,-2.535342085175216Z" fill="#8098c7" stroke="#8098c7"></path><path d="M1258.5685486206785,-2.1085727447643876L1157.9646826535463,32.4267196143046L1308.0016691656783,33.117365734651685Z" fill="#7d9cc7" stroke="#7d9cc7"></path><path d="M1258.5685486206785,-2.1085727447643876L1308.0016691656783,33.117365734651685L1371.719005187042,-10.411956012248993Z" fill="#7f94c5" stroke="#7f94c5"></path><path d="M1371.719005187042,-10.411956012248993L1308.0016691656783,33.117365734651685L1459.2147838370875,109.80522464495152Z" fill="#7b8cbc" stroke="#7b8cbc"></path><path d="M1371.719005187042,-10.411956012248993L1459.2147838370875,109.80522464495152L1432.9058235045522,-2.535342085175216Z" fill="#7c87bb" stroke="#7c87bb"></path><path d="M1432.9058235045522,-2.535342085175216L1459.2147838370875,109.80522464495152L1525.1811373699456,283.56989291962236Z" fill="#7182ae" stroke="#7182ae"></path><path d="M-125.77336658723652,134.65345622971654L-133.6512941122055,787.2245847852901L-117.04250005539507,454.753887578845Z" fill="#a3d8f3" stroke="#a3d8f3"></path><path d="M-125.77336658723652,134.65345622971654L-117.04250005539507,454.753887578845L-5.183751932345331,346.4499742910266Z" fill="#c3f4f1" stroke="#c3f4f1"></path><path d="M-125.77336658723652,134.65345622971654L-5.183751932345331,346.4499742910266L-8.012731927447021,189.05823413282633Z" fill="#d7fbeb" stroke="#d7fbeb"></path><path d="M-125.77336658723652,134.65345622971654L-8.012731927447021,189.05823413282633L24.335713204927742,165.23080058395863Z" fill="#e6fde8" stroke="#e6fde8"></path><path d="M-125.77336658723652,134.65345622971654L24.335713204927742,165.23080058395863L18.512188768945634,38.760900693014264Z" fill="#eefdea" stroke="#eefdea"></path><path d="M18.512188768945634,38.760900693014264L24.335713204927742,165.23080058395863L142.35974091570824,125.82364929839969Z" fill="#e4fae2" stroke="#e4fae2"></path><path d="M142.35974091570824,125.82364929839969L24.335713204927742,165.23080058395863L50.85695801768452,393.8172715716064Z" fill="#c9f6e1" stroke="#c9f6e1"></path><path d="M142.35974091570824,125.82364929839969L50.85695801768452,393.8172715716064L274.14419744629413,212.13310526683927Z" fill="#bcf1da" stroke="#bcf1da"></path><path d="M142.35974091570824,125.82364929839969L274.14419744629413,212.13310526683927L343.1098338775337,37.07702044863254Z" fill="#cff2d1" stroke="#cff2d1"></path><path d="M343.1098338775337,37.07702044863254L274.14419744629413,212.13310526683927L423.73109927400947,141.17823443375528Z" fill="#c3eed1" stroke="#c3eed1"></path><path d="M343.1098338775337,37.07702044863254L423.73109927400947,141.17823443375528L474.9470379203558,98.30284798517823Z" fill="#bfead6" stroke="#bfead6"></path><path d="M474.9470379203558,98.30284798517823L423.73109927400947,141.17823443375528L545.0208239909261,289.1218161676079Z" fill="#a8e6d3" stroke="#a8e6d3"></path><path d="M474.9470379203558,98.30284798517823L545.0208239909261,289.1218161676079L649.5123965106905,179.11838026251644Z" fill="#9ce0d4" stroke="#9ce0d4"></path><path d="M474.9470379203558,98.30284798517823L649.5123965106905,179.11838026251644L625.4959983564913,91.8784328456968Z" fill="#a7e0d5" stroke="#a7e0d5"></path><path d="M625.4959983564913,91.8784328456968L649.5123965106905,179.11838026251644L709.1712683578953,24.330249186605215Z" fill="#a2dad9" stroke="#a2dad9"></path><path d="M709.1712683578953,24.330249186605215L649.5123965106905,179.11838026251644L801.0574947157875,156.67041630018502Z" fill="#99d5d7" stroke="#99d5d7"></path><path d="M916.0386360902339,70.65284553915262L801.0574947157875,156.67041630018502L960.9309328533709,276.1725883372128Z" fill="#7cc2cf" stroke="#7cc2cf"></path><path d="M916.0386360902339,70.65284553915262L960.9309328533709,276.1725883372128L1076.9797348743305,127.00014693662524Z" fill="#74b8c9" stroke="#74b8c9"></path><path d="M1076.9797348743305,127.00014693662524L960.9309328533709,276.1725883372128L1062.388197989203,233.90032472088933Z" fill="#60b0c8" stroke="#60b0c8"></path><path d="M1076.9797348743305,127.00014693662524L1062.388197989203,233.90032472088933L1140.3487975616008,277.7901118900627Z" fill="#5da9c5" stroke="#5da9c5"></path><path d="M1076.9797348743305,127.00014693662524L1140.3487975616008,277.7901118900627L1324.0955062163994,154.7414370533079Z" fill="#64a1bf" stroke="#64a1bf"></path><path d="M1076.9797348743305,127.00014693662524L1324.0955062163994,154.7414370533079L1157.9646826535463,32.4267196143046Z" fill="#74a2c1" stroke="#74a2c1"></path><path d="M1157.9646826535463,32.4267196143046L1324.0955062163994,154.7414370533079L1308.0016691656783,33.117365734651685Z" fill="#7799c0" stroke="#7799c0"></path><path d="M1308.0016691656783,33.117365734651685L1324.0955062163994,154.7414370533079L1459.2147838370875,109.80522464495152Z" fill="#748eb7" stroke="#748eb7"></path><path d="M1459.2147838370875,109.80522464495152L1324.0955062163994,154.7414370533079L1401.7137941205874,230.45329197775573Z" fill="#6989b2" stroke="#6989b2"></path><path d="M1459.2147838370875,109.80522464495152L1401.7137941205874,230.45329197775573L1525.1811373699456,283.56989291962236Z" fill="#5e80af" stroke="#5e80af"></path><path d="M-8.012731927447021,189.05823413282633L-5.183751932345331,346.4499742910266L24.335713204927742,165.23080058395863Z" fill="#cff8e7" stroke="#cff8e7"></path><path d="M24.335713204927742,165.23080058395863L-5.183751932345331,346.4499742910266L50.85695801768452,393.8172715716064Z" fill="#bbf2e8" stroke="#bbf2e8"></path><path d="M274.14419744629413,212.13310526683927L50.85695801768452,393.8172715716064L218.02426322363317,418.4704329725355Z" fill="#a1e5db" stroke="#a1e5db"></path><path d="M274.14419744629413,212.13310526683927L218.02426322363317,418.4704329725355L284.6710813604295,231.36560297571123Z" fill="#a6ebd3" stroke="#a6ebd3"></path><path d="M274.14419744629413,212.13310526683927L284.6710813604295,231.36560297571123L423.73109927400947,141.17823443375528Z" fill="#b6ecd1" stroke="#b6ecd1"></path><path d="M284.6710813604295,231.36560297571123L218.02426322363317,418.4704329725355L313.4149170573801,369.38775576185435Z" fill="#98e2d5" stroke="#98e2d5"></path><path d="M284.6710813604295,231.36560297571123L313.4149170573801,369.38775576185435L545.0208239909261,289.1218161676079Z" fill="#95e4d6" stroke="#95e4d6"></path><path d="M284.6710813604295,231.36560297571123L545.0208239909261,289.1218161676079L423.73109927400947,141.17823443375528Z" fill="#a4e7d4" stroke="#a4e7d4"></path><path d="M649.5123965106905,179.11838026251644L545.0208239909261,289.1218161676079L675.7589160418138,409.51235461980104Z" fill="#79d5d9" stroke="#79d5d9"></path><path d="M649.5123965106905,179.11838026251644L675.7589160418138,409.51235461980104L728.7600306421518,389.8500019405037Z" fill="#6bcada" stroke="#6bcada"></path><path d="M649.5123965106905,179.11838026251644L728.7600306421518,389.8500019405037L801.0574947157875,156.67041630018502Z" fill="#7bd0d8" stroke="#7bd0d8"></path><path d="M801.0574947157875,156.67041630018502L728.7600306421518,389.8500019405037L960.9309328533709,276.1725883372128Z" fill="#67c5d6" stroke="#67c5d6"></path><path d="M960.9309328533709,276.1725883372128L728.7600306421518,389.8500019405037L859.5532950758934,443.1752120004967Z" fill="#4eb3d8" stroke="#4eb3d8"></path><path d="M960.9309328533709,276.1725883372128L859.5532950758934,443.1752120004967L943.2391562312841,411.47261111531407Z" fill="#44a9d4" stroke="#44a9d4"></path><path d="M960.9309328533709,276.1725883372128L943.2391562312841,411.47261111531407L999.7096684761345,376.699659335427Z" fill="#44a8d0" stroke="#44a8d0"></path><path d="M960.9309328533709,276.1725883372128L999.7096684761345,376.699659335427L1062.388197989203,233.90032472088933Z" fill="#4eaecd" stroke="#4eaecd"></path><path d="M1062.388197989203,233.90032472088933L999.7096684761345,376.699659335427L1140.3487975616008,277.7901118900627Z" fill="#47a7c9" stroke="#47a7c9"></path><path d="M1140.3487975616008,277.7901118900627L999.7096684761345,376.699659335427L1159.1665701940656,300.8731841528788Z" fill="#42a0c8" stroke="#42a0c8"></path><path d="M1140.3487975616008,277.7901118900627L1159.1665701940656,300.8731841528788L1324.0955062163994,154.7414370533079Z" fill="#549bbf" stroke="#549bbf"></path><path d="M1324.0955062163994,154.7414370533079L1159.1665701940656,300.8731841528788L1325.2227010857314,393.766767042689Z" fill="#4a93bd" stroke="#4a93bd"></path><path d="M1324.0955062163994,154.7414370533079L1325.2227010857314,393.766767042689L1401.7137941205874,230.45329197775573Z" fill="#508ab7" stroke="#508ab7"></path><path d="M1401.7137941205874,230.45329197775573L1325.2227010857314,393.766767042689L1467.8828457277268,426.03114132303745Z" fill="#3a79b7" stroke="#3a79b7"></path><path d="M1401.7137941205874,230.45329197775573L1467.8828457277268,426.03114132303745L1525.1811373699456,283.56989291962236Z" fill="#4378b2" stroke="#4378b2"></path><path d="M-5.183751932345331,346.4499742910266L-117.04250005539507,454.753887578845L50.85695801768452,393.8172715716064Z" fill="#a9e3ee" stroke="#a9e3ee"></path><path d="M50.85695801768452,393.8172715716064L-117.04250005539507,454.753887578845L5.9653682028874755,639.2417169269174Z" fill="#97cde5" stroke="#97cde5"></path><path d="M50.85695801768452,393.8172715716064L5.9653682028874755,639.2417169269174L133.30184111837298,514.8640745552257Z" fill="#8cc5dc" stroke="#8cc5dc"></path><path d="M50.85695801768452,393.8172715716064L133.30184111837298,514.8640745552257L218.02426322363317,418.4704329725355Z" fill="#90d4df" stroke="#90d4df"></path><path d="M218.02426322363317,418.4704329725355L133.30184111837298,514.8640745552257L279.4824125384912,480.8633048646152Z" fill="#83cad5" stroke="#83cad5"></path><path d="M218.02426322363317,418.4704329725355L279.4824125384912,480.8633048646152L313.4149170573801,369.38775576185435Z" fill="#85d3d7" stroke="#85d3d7"></path><path d="M313.4149170573801,369.38775576185435L279.4824125384912,480.8633048646152L415.7100458070636,554.9717956734821Z" fill="#75c5d2" stroke="#75c5d2"></path><path d="M313.4149170573801,369.38775576185435L415.7100458070636,554.9717956734821L548.6485434463248,503.83881566114724Z" fill="#69bfd3" stroke="#69bfd3"></path><path d="M313.4149170573801,369.38775576185435L548.6485434463248,503.83881566114724L545.0208239909261,289.1218161676079Z" fill="#74d0d9" stroke="#74d0d9"></path><path d="M545.0208239909261,289.1218161676079L548.6485434463248,503.83881566114724L675.7589160418138,409.51235461980104Z" fill="#64c5db" stroke="#64c5db"></path><path d="M675.7589160418138,409.51235461980104L548.6485434463248,503.83881566114724L696.7998563824221,449.401338333264Z" fill="#54b6d9" stroke="#54b6d9"></path><path d="M675.7589160418138,409.51235461980104L696.7998563824221,449.401338333264L728.7600306421518,389.8500019405037Z" fill="#54badc" stroke="#54badc"></path><path d="M728.7600306421518,389.8500019405037L696.7998563824221,449.401338333264L801.5179491927847,465.5939010716975Z" fill="#4bb2dc" stroke="#4bb2dc"></path><path d="M728.7600306421518,389.8500019405037L801.5179491927847,465.5939010716975L859.5532950758934,443.1752120004967Z" fill="#46addb" stroke="#46addb"></path><path d="M943.2391562312841,411.47261111531407L859.5532950758934,443.1752120004967L827.4214286589995,574.5076042087749Z" fill="#369ad1" stroke="#369ad1"></path><path d="M943.2391562312841,411.47261111531407L827.4214286589995,574.5076042087749L944.5185915194452,667.0575801189989Z" fill="#2785c6" stroke="#2785c6"></path><path d="M943.2391562312841,411.47261111531407L944.5185915194452,667.0575801189989L1045.1735446741804,639.984705648385Z" fill="#1b77bf" stroke="#1b77bf"></path><path d="M943.2391562312841,411.47261111531407L1045.1735446741804,639.984705648385L1080.8131110062823,462.19527306966484Z" fill="#2082c5" stroke="#2082c5"></path><path d="M943.2391562312841,411.47261111531407L1080.8131110062823,462.19527306966484L999.7096684761345,376.699659335427Z" fill="#3199d0" stroke="#3199d0"></path><path d="M999.7096684761345,376.699659335427L1080.8131110062823,462.19527306966484L1159.1665701940656,300.8731841528788Z" fill="#3397cb" stroke="#3397cb"></path><path d="M1159.1665701940656,300.8731841528788L1080.8131110062823,462.19527306966484L1268.4683353919536,488.45979758538306Z" fill="#2a86c7" stroke="#2a86c7"></path><path d="M1159.1665701940656,300.8731841528788L1268.4683353919536,488.45979758538306L1325.2227010857314,393.766767042689Z" fill="#3081c1" stroke="#3081c1"></path><path d="M1325.2227010857314,393.766767042689L1268.4683353919536,488.45979758538306L1467.8828457277268,426.03114132303745Z" fill="#276ebb" stroke="#276ebb"></path><path d="M1525.1811373699456,283.56989291962236L1467.8828457277268,426.03114132303745L1492.2818288207054,679.1842609737068Z" fill="#2358af" stroke="#2358af"></path><path d="M1525.1811373699456,283.56989291962236L1492.2818288207054,679.1842609737068L1528.1591286323965,940.3094845032319Z" fill="#072e98" stroke="#072e98"></path><path d="M-117.04250005539507,454.753887578845L-133.6512941122055,787.2245847852901L-104.30867238901556,605.0961634144187Z" fill="#8ab2df" stroke="#8ab2df"></path><path d="M-117.04250005539507,454.753887578845L-104.30867238901556,605.0961634144187L5.9653682028874755,639.2417169269174Z" fill="#92bee1" stroke="#92bee1"></path><path d="M133.30184111837298,514.8640745552257L5.9653682028874755,639.2417169269174L238.54060050100088,664.2271058447659Z" fill="#77adcb" stroke="#77adcb"></path><path d="M133.30184111837298,514.8640745552257L238.54060050100088,664.2271058447659L279.4824125384912,480.8633048646152Z" fill="#75b6ca" stroke="#75b6ca"></path><path d="M279.4824125384912,480.8633048646152L238.54060050100088,664.2271058447659L281.68250523507595,649.8746520560235Z" fill="#69a9c1" stroke="#69a9c1"></path><path d="M279.4824125384912,480.8633048646152L281.68250523507595,649.8746520560235L415.7100458070636,554.9717956734821Z" fill="#67afc7" stroke="#67afc7"></path><path d="M415.7100458070636,554.9717956734821L281.68250523507595,649.8746520560235L476.2317040655762,613.2624986441806Z" fill="#58a1c2" stroke="#58a1c2"></path><path d="M415.7100458070636,554.9717956734821L476.2317040655762,613.2624986441806L548.6485434463248,503.83881566114724Z" fill="#55a9ca" stroke="#55a9ca"></path><path d="M548.6485434463248,503.83881566114724L476.2317040655762,613.2624986441806L664.7591575840488,608.8573625264689Z" fill="#499fc8" stroke="#499fc8"></path><path d="M548.6485434463248,503.83881566114724L664.7591575840488,608.8573625264689L696.7998563824221,449.401338333264Z" fill="#49a6d0" stroke="#49a6d0"></path><path d="M696.7998563824221,449.401338333264L664.7591575840488,608.8573625264689L827.4214286589995,574.5076042087749Z" fill="#3c99ce" stroke="#3c99ce"></path><path d="M696.7998563824221,449.401338333264L827.4214286589995,574.5076042087749L801.5179491927847,465.5939010716975Z" fill="#3ea0d5" stroke="#3ea0d5"></path><path d="M801.5179491927847,465.5939010716975L827.4214286589995,574.5076042087749L859.5532950758934,443.1752120004967Z" fill="#399bd2" stroke="#399bd2"></path><path d="M1080.8131110062823,462.19527306966484L1045.1735446741804,639.984705648385L1194.133006380871,536.1105841165408Z" fill="#156fbb" stroke="#156fbb"></path><path d="M1080.8131110062823,462.19527306966484L1194.133006380871,536.1105841165408L1268.4683353919536,488.45979758538306Z" fill="#1d73bd" stroke="#1d73bd"></path><path d="M1194.133006380871,536.1105841165408L1045.1735446741804,639.984705648385L1200.3135945554823,635.8842025930062Z" fill="#0c5cb1" stroke="#0c5cb1"></path><path d="M1194.133006380871,536.1105841165408L1200.3135945554823,635.8842025930062L1268.4683353919536,488.45979758538306Z" fill="#1460b4" stroke="#1460b4"></path><path d="M1268.4683353919536,488.45979758538306L1200.3135945554823,635.8842025930062L1335.7177151506767,669.7268755175173Z" fill="#0d50ab" stroke="#0d50ab"></path><path d="M1268.4683353919536,488.45979758538306L1335.7177151506767,669.7268755175173L1467.8828457277268,426.03114132303745Z" fill="#1857af" stroke="#1857af"></path><path d="M1467.8828457277268,426.03114132303745L1335.7177151506767,669.7268755175173L1492.2818288207054,679.1842609737068Z" fill="#0e3fa2" stroke="#0e3fa2"></path><path d="M-104.30867238901556,605.0961634144187L-133.6512941122055,787.2245847852901L5.9653682028874755,639.2417169269174Z" fill="#80a3d4" stroke="#80a3d4"></path><path d="M5.9653682028874755,639.2417169269174L-133.6512941122055,787.2245847852901L-65.41427554562688,842.5063490215689Z" fill="#7f90c9" stroke="#7f90c9"></path><path d="M5.9653682028874755,639.2417169269174L-65.41427554562688,842.5063490215689L93.71161945164204,747.5515527324751Z" fill="#7790c4" stroke="#7790c4"></path><path d="M5.9653682028874755,639.2417169269174L93.71161945164204,747.5515527324751L238.54060050100088,664.2271058447659Z" fill="#6c9ac3" stroke="#6c9ac3"></path><path d="M238.54060050100088,664.2271058447659L93.71161945164204,747.5515527324751L213.74754475429654,791.2435010215268Z" fill="#658bb6" stroke="#658bb6"></path><path d="M238.54060050100088,664.2271058447659L213.74754475429654,791.2435010215268L317.97690600156784,816.6683080745861Z" fill="#5d82ad" stroke="#5d82ad"></path><path d="M238.54060050100088,664.2271058447659L317.97690600156784,816.6683080745861L281.68250523507595,649.8746520560235Z" fill="#5b8db3" stroke="#5b8db3"></path><path d="M281.68250523507595,649.8746520560235L317.97690600156784,816.6683080745861L476.2317040655762,613.2624986441806Z" fill="#518eb6" stroke="#518eb6"></path><path d="M476.2317040655762,613.2624986441806L317.97690600156784,816.6683080745861L526.6108058160171,730.1757450541481Z" fill="#4783b5" stroke="#4783b5"></path><path d="M476.2317040655762,613.2624986441806L526.6108058160171,730.1757450541481L643.8941639661789,704.260371234268Z" fill="#3a86bb" stroke="#3a86bb"></path><path d="M476.2317040655762,613.2624986441806L643.8941639661789,704.260371234268L664.7591575840488,608.8573625264689Z" fill="#3b8cc0" stroke="#3b8cc0"></path><path d="M664.7591575840488,608.8573625264689L643.8941639661789,704.260371234268L849.3560117436573,733.0304041458294Z" fill="#2778bd" stroke="#2778bd"></path><path d="M664.7591575840488,608.8573625264689L849.3560117436573,733.0304041458294L827.4214286589995,574.5076042087749Z" fill="#277dc2" stroke="#277dc2"></path><path d="M827.4214286589995,574.5076042087749L849.3560117436573,733.0304041458294L944.5185915194452,667.0575801189989Z" fill="#1a6eba" stroke="#1a6eba"></path><path d="M944.5185915194452,667.0575801189989L849.3560117436573,733.0304041458294L1007.0273149292916,765.2879256429151Z" fill="#0f58af" stroke="#0f58af"></path><path d="M944.5185915194452,667.0575801189989L1007.0273149292916,765.2879256429151L1045.1735446741804,639.984705648385Z" fill="#0858af" stroke="#0858af"></path><path d="M1045.1735446741804,639.984705648385L1007.0273149292916,765.2879256429151L1185.575975049287,726.015430088155Z" fill="#004aa8" stroke="#004aa8"></path><path d="M1045.1735446741804,639.984705648385L1185.575975049287,726.015430088155L1200.3135945554823,635.8842025930062Z" fill="#024daa" stroke="#024daa"></path><path d="M1200.3135945554823,635.8842025930062L1185.575975049287,726.015430088155L1335.7177151506767,669.7268755175173Z" fill="#0140a3" stroke="#0140a3"></path><path d="M1335.7177151506767,669.7268755175173L1185.575975049287,726.015430088155L1350.6477586738765,753.8094965321943Z" fill="#00319b" stroke="#00319b"></path><path d="M1335.7177151506767,669.7268755175173L1350.6477586738765,753.8094965321943L1492.2818288207054,679.1842609737068Z" fill="#002997" stroke="#002997"></path><path d="M1492.2818288207054,679.1842609737068L1350.6477586738765,753.8094965321943L1427.402975242585,781.3024746626616Z" fill="#001d90" stroke="#001d90"></path><path d="M1492.2818288207054,679.1842609737068L1427.402975242585,781.3024746626616L1528.1591286323965,940.3094845032319Z" fill="#000785" stroke="#000785"></path><path d="M-133.6512941122055,787.2245847852901L29.24991891719401,932.5650772824883L-65.41427554562688,842.5063490215689Z" fill="#7e7fbc" stroke="#7e7fbc"></path><path d="M93.71161945164204,747.5515527324751L-65.41427554562688,842.5063490215689L29.24991891719401,932.5650772824883Z" fill="#767cb7" stroke="#767cb7"></path><path d="M93.71161945164204,747.5515527324751L29.24991891719401,932.5650772824883L213.74754475429654,791.2435010215268Z" fill="#6c78b1" stroke="#6c78b1"></path><path d="M213.74754475429654,791.2435010215268L29.24991891719401,932.5650772824883L248.4443524479866,895.7766171218827Z" fill="#6776a6" stroke="#6776a6"></path><path d="M213.74754475429654,791.2435010215268L248.4443524479866,895.7766171218827L317.97690600156784,816.6683080745861Z" fill="#5d72a3" stroke="#5d72a3"></path><path d="M317.97690600156784,816.6683080745861L248.4443524479866,895.7766171218827L283.9134033815935,929.2581378202885Z" fill="#5a719e" stroke="#5a719e"></path><path d="M317.97690600156784,816.6683080745861L283.9134033815935,929.2581378202885L434.6740536438301,898.6331764794886Z" fill="#526e9f" stroke="#526e9f"></path><path d="M317.97690600156784,816.6683080745861L434.6740536438301,898.6331764794886L526.6108058160171,730.1757450541481Z" fill="#496ca8" stroke="#496ca8"></path><path d="M526.6108058160171,730.1757450541481L434.6740536438301,898.6331764794886L687.0517004141584,964.1200782544911Z" fill="#3a63a4" stroke="#3a63a4"></path><path d="M526.6108058160171,730.1757450541481L687.0517004141584,964.1200782544911L719.8585028108209,833.7033481383696Z" fill="#305ca8" stroke="#305ca8"></path><path d="M526.6108058160171,730.1757450541481L719.8585028108209,833.7033481383696L643.8941639661789,704.260371234268Z" fill="#316db3" stroke="#316db3"></path><path d="M643.8941639661789,704.260371234268L719.8585028108209,833.7033481383696L849.3560117436573,733.0304041458294Z" fill="#2565b3" stroke="#2565b3"></path><path d="M719.8585028108209,833.7033481383696L687.0517004141584,964.1200782544911L766.7107183067128,890.1843348750845Z" fill="#2755a2" stroke="#2755a2"></path><path d="M719.8585028108209,833.7033481383696L766.7107183067128,890.1843348750845L849.3560117436573,733.0304041458294Z" fill="#2152ac" stroke="#2152ac"></path><path d="M849.3560117436573,733.0304041458294L766.7107183067128,890.1843348750845L876.7939012637362,879.6434167260304Z" fill="#1b4ba7" stroke="#1b4ba7"></path><path d="M849.3560117436573,733.0304041458294L876.7939012637362,879.6434167260304L1007.0273149292916,765.2879256429151Z" fill="#1249a7" stroke="#1249a7"></path><path d="M1007.0273149292916,765.2879256429151L876.7939012637362,879.6434167260304L1009.0513029741123,952.6347761508077Z" fill="#0c3c9b" stroke="#0c3c9b"></path><path d="M1007.0273149292916,765.2879256429151L1009.0513029741123,952.6347761508077L1126.3677366124466,856.7169905966148Z" fill="#023297" stroke="#023297"></path><path d="M1007.0273149292916,765.2879256429151L1126.3677366124466,856.7169905966148L1185.575975049287,726.015430088155Z" fill="#00369d" stroke="#00369d"></path><path d="M1185.575975049287,726.015430088155L1126.3677366124466,856.7169905966148L1350.6477586738765,753.8094965321943Z" fill="#002a97" stroke="#002a97"></path><path d="M1350.6477586738765,753.8094965321943L1126.3677366124466,856.7169905966148L1373.3063084585592,959.0606615459546Z" fill="#001889" stroke="#001889"></path><path d="M1350.6477586738765,753.8094965321943L1373.3063084585592,959.0606615459546L1427.402975242585,781.3024746626616Z" fill="#000c87" stroke="#000c87"></path><path d="M1427.402975242585,781.3024746626616L1373.3063084585592,959.0606615459546L1528.1591286323965,940.3094845032319Z" fill="#00067c" stroke="#00067c"></path><path d="M29.24991891719401,932.5650772824883L687.0517004141584,964.1200782544911L283.9134033815935,929.2581378202885Z" fill="#546f97" stroke="#546f97"></path><path d="M29.24991891719401,932.5650772824883L283.9134033815935,929.2581378202885L248.4443524479866,895.7766171218827Z" fill="#65759e" stroke="#65759e"></path><path d="M283.9134033815935,929.2581378202885L687.0517004141584,964.1200782544911L434.6740536438301,898.6331764794886Z" fill="#43689a" stroke="#43689a"></path><path d="M687.0517004141584,964.1200782544911L1373.3063084585592,959.0606615459546L1009.0513029741123,952.6347761508077Z" fill="#05358c" stroke="#05358c"></path><path d="M687.0517004141584,964.1200782544911L1009.0513029741123,952.6347761508077L876.7939012637362,879.6434167260304Z" fill="#184899" stroke="#184899"></path><path d="M687.0517004141584,964.1200782544911L876.7939012637362,879.6434167260304L766.7107183067128,890.1843348750845Z" fill="#2151a0" stroke="#2151a0"></path><path d="M1009.0513029741123,952.6347761508077L1373.3063084585592,959.0606615459546L1126.3677366124466,856.7169905966148Z" fill="#002488" stroke="#002488"></path></g></svg>