<?xml version="1.0" encoding="utf-8"?>
<!-- Generator: Adobe Illustrator 16.0.4, SVG Export Plug-In . SVG Version: 6.00 Build 0)  -->
<!DOCTYPE svg PUBLIC "-//W3C//DTD SVG 1.1//EN" "http://www.w3.org/Graphics/SVG/1.1/DTD/svg11.dtd">
<svg version="1.1" id="Capa_1" xmlns="http://www.w3.org/2000/svg" xmlns:xlink="http://www.w3.org/1999/xlink" x="0px" y="0px"
	 width="17.18px" height="23.305px" viewBox="0 0 17.18 23.305" enable-background="new 0 0 17.18 23.305" xml:space="preserve">
<path d="M8.104,12.512c0,0-1.299-2.503-1.251-4.332c0.035-1.307,2.982-2.599,4.139-4.475C12.147,1.828,10.848,0,10.848,0
	s0.289,1.348-0.481,2.742C9.597,4.138,6.755,4.957,5.65,7.363C4.545,9.769,8.104,12.512,8.104,12.512z"/>
<path d="M12.966,4.908c0,0-4.427,1.685-4.427,3.609c0,1.926,1.202,2.551,1.396,3.176c0.192,0.627-0.337,1.685-0.337,1.685
	s1.732-1.203,1.442-2.599c-0.289-1.396-1.636-1.83-0.865-3.224C10.69,6.62,12.966,4.908,12.966,4.908z"/>
<path d="M7.624,15.055c4.091-0.146,5.583-1.437,5.583-1.437c-2.646,0.721-9.673,0.674-9.722,0.145
	c-0.047-0.529,2.165-0.963,2.165-0.963s-3.464,0-3.753,0.866S3.536,15.198,7.624,15.055z"/>
<path d="M13.543,17.083c0,0,4.004-0.854,3.608-3.029c-0.48-2.648-3.272-1.156-3.272-1.156s1.975,0,2.166,1.202
	C16.238,15.303,13.543,17.083,13.543,17.083z"/>
<path d="M11.57,15.929c0,0-1.009,0.265-2.504,0.433c-2.004,0.225-4.427,0.047-4.62-0.29c-0.19-0.337,0.337-0.529,0.337-0.529
	c-2.407,0.578-1.09,1.587,1.731,1.781c2.418,0.165,6.017-0.722,6.017-0.722L11.57,15.929z"/>
<path d="M5.363,18.031c0,0-1.092,0.031-1.156,0.609c-0.063,0.574,0.672,1.09,3.368,1.25c2.695,0.16,4.589-0.737,4.589-0.737
	l-1.219-0.74c0,0-0.771,0.162-1.958,0.322c-1.188,0.161-3.624-0.129-3.72-0.352C5.169,18.158,5.363,18.031,5.363,18.031z"/>
<path d="M15.852,20.63c0.417-0.45-0.129-0.803-0.129-0.803s0.192,0.225-0.062,0.481c-0.257,0.256-2.6,0.897-6.354,1.09
	c-3.753,0.193-7.828-0.353-7.957-0.834c-0.125-0.481,2.087-0.865,2.087-0.865c-0.256,0.032-3.336,0.096-3.434,0.931
	c-0.096,0.833,1.347,1.507,7.124,1.507C12.901,22.136,15.437,21.077,15.852,20.63z"/>
<path d="M13.607,22.522c-2.535,0.512-10.233,0.189-10.233,0.189s5.003,1.188,10.714,0.194c2.73-0.476,2.889-1.797,2.889-1.797
	S16.142,22.007,13.607,22.522z"/>
</svg>
